<svg width="130" height="130" xmlns="http://www.w3.org/2000/svg">
 <!-- Created with Method Draw - http://github.com/duopixel/Method-Draw/ -->

 <g>
  <title>background</title>
  <rect fill="none" id="canvas_background" height="132" width="132" y="-1" x="-1"/>
  <g display="none" overflow="visible" y="0" x="0" height="100%" width="100%" id="canvasGrid">
   <rect fill="url(#gridpattern)" stroke-width="0" y="0" x="0" height="100%" width="100%"/>
  </g>
 </g>
 <g>
  <title>Layer 1</title>
  <g id="svg_5">
   <path stroke="#6F5C2A" id="svg_4" d="m120.387939,3.721313l-12.402344,12.40242l-2.652985,-2.653c-4.528992,-4.524002 -10.49176,-6.787247 -16.455078,-6.78717c-5.963257,0.000092 -11.929749,2.278168 -16.454987,6.803421l-9.863342,9.846985l-2.945923,-2.945999l-5.891968,5.891998l13.720734,13.720673l-13.720734,13.720657l5.891968,5.891998l13.720673,-13.720749l10.77475,10.77475l-13.720764,13.720657l5.892029,5.892014l13.720642,-13.720764l13.720673,13.720764l5.891998,-5.892014l-2.946014,-2.945908l9.863251,-9.863251c9.047913,-9.057999 9.050598,-23.85965 0,-32.910156l-2.653015,-2.653l12.402435,-12.402328l-5.891998,-5.891998zm-31.510406,11.263077c3.813904,-0.00032 7.625488,1.460083 10.563141,4.394501l11.197937,11.181656c5.86615,5.866089 5.868835,15.250916 0,21.126251l-9.863251,9.863327l-32.324249,-32.324234l9.863342,-9.847c2.933075,-2.933075 6.749237,-4.394165 10.56308,-4.394501zm-62.597565,38.736908l-5.891998,5.891998l2.945999,2.945908l-9.863235,9.863342c-9.047913,9.057907 -9.050583,23.859573 0,32.910065l2.653,2.653l-12.40242,12.402328l5.891998,5.891998l12.402328,-12.40242l2.653,2.653c9.057922,9.047913 23.859589,9.034668 32.910156,-0.016251l9.863251,-9.847l2.945892,2.946014l5.892029,-5.891998l-50,-49.999985zm2.945923,14.729813l32.324219,32.324249l-9.863312,9.847c-5.866089,5.866165 -15.250916,5.86882 -21.126251,0l-11.197906,-11.181671c-5.866165,-5.866074 -5.868835,-15.2509 0,-21.126236l9.863251,-9.863342z"/>
  </g>
 </g>
</svg>