<svg width="305" height="305" xmlns="http://www.w3.org/2000/svg">

 <g>
  <title>background</title>
  <rect fill="none" id="canvas_background" height="307" width="307" y="-1" x="-1"/>
 </g>
 <g>
  <title>Layer 1</title>
  <g id="Layer_6"/>
  <path id="svg_1" fill="#252525" d="m259.747009,44.753006c-59.227997,-59.226997 -155.266998,-59.226997 -214.494003,0c-59.226997,59.227997 -59.226997,155.266983 0,214.494003c59.227997,59.22699 155.266983,59.22699 214.494003,0c59.22699,-59.22702 59.22699,-155.267014 0,-214.494003zm-106.894012,133.056992l-71.417999,71.417999l-26.162994,-26.162994l71.416992,-71.417999l-70.709991,-70.710999l25.455994,-25.456009l70.710999,70.710007l70.710999,-70.710007l26.162994,26.16301l-70.710999,70.709991l70.710999,70.710999l-25.455994,25.455994l-70.710999,-70.709991z"/>
  <g id="Layer_3">
   <circle id="svg_2" r="122.687012" fill="#FFFFFF" cy="152.354" cx="152"/>
  </g>
  <g id="Layer_7">
   <g id="svg_3">
    <path id="svg_4" fill="#252525" d="m228.460999,149.354004c2.858002,1.649994 2.858002,4.350006 0,6l-112.093994,64.71701c-2.858002,1.649994 -5.196014,0.299988 -5.196014,-3l0,-129.435013c0,-3.300003 2.338013,-4.649994 5.196014,-3l112.093994,64.718002z"/>
   </g>
  </g>
 </g>
</svg>