<?xml version="1.0" standalone="no"?>
<!DOCTYPE svg PUBLIC "-//W3C//DTD SVG 20010904//EN"
 "http://www.w3.org/TR/2001/REC-SVG-20010904/DTD/svg10.dtd">
<svg version="1.0" xmlns="http://www.w3.org/2000/svg"
 width="512.000000pt" height="511.000000pt" viewBox="0 0 512.000000 511.000000"
 preserveAspectRatio="xMidYMid meet">

<g transform="translate(0.000000,511.000000) scale(0.100000,-0.100000)"
fill="#000000" stroke="none">
<path d="M2440 4723 c-298 -21 -553 -87 -805 -207 -244 -117 -425 -245 -610
-430 -659 -662 -821 -1663 -405 -2498 l58 -118 -339 0 -339 0 0 -545 0 -546
1383 4 c1496 4 1438 1 1680 58 780 182 1406 796 1607 1573 49 191 64 319 64
541 0 363 -67 652 -224 968 l-59 117 334 0 335 0 0 545 0 545 -1317 -2 c-725
-1 -1338 -3 -1363 -5z m2420 -538 l0 -285 -450 -2 -451 -3 92 -125 c122 -165
166 -235 226 -355 86 -172 142 -340 180 -540 23 -126 28 -417 9 -562 -75 -566
-384 -1054 -871 -1373 -226 -148 -542 -258 -827 -289 -63 -7 -525 -11 -1303
-11 l-1205 0 0 285 0 285 465 0 c256 0 465 4 465 8 0 4 -16 24 -36 43 -135
128 -301 400 -388 631 -88 237 -120 439 -113 713 7 245 37 407 114 615 138
372 401 704 734 928 174 116 400 217 600 266 221 54 217 54 1537 55 l1222 1 0
-285z"/>
<path d="M2335 3914 c-187 -29 -341 -81 -480 -162 -89 -53 -238 -194 -270
-256 l-20 -38 251 -247 252 -246 -39 -59 c-43 -65 -75 -145 -91 -225 l-11 -53
-369 4 -368 4 0 -104 c0 -259 74 -526 201 -722 49 -77 178 -207 233 -235 l38
-20 249 255 249 255 38 -23 c76 -47 163 -84 223 -95 l61 -12 -4 -377 -3 -378
100 0 c242 0 494 65 690 179 88 51 237 191 270 254 l20 37 -253 253 -253 253
19 25 c49 62 95 166 117 263 l6 29 377 -4 377 -4 -2 100 c-10 417 -165 773
-410 941 l-54 38 -247 -247 c-136 -136 -250 -247 -253 -247 -4 0 -34 18 -67
40 -65 44 -162 84 -231 95 l-44 7 6 369 6 369 -112 -1 c-62 -1 -152 -7 -202
-15z m389 -1012 c89 -42 140 -91 184 -180 35 -71 37 -82 37 -167 0 -85 -2 -96
-37 -167 -45 -90 -94 -138 -187 -182 -59 -27 -76 -31 -156 -31 -80 0 -97 4
-157 32 -85 40 -151 106 -191 191 -28 60 -32 77 -32 157 0 80 4 97 32 157 51
108 149 190 260 218 68 17 177 5 247 -28z"/>
<path d="M2486 2795 c-57 -20 -108 -66 -138 -125 -109 -207 108 -444 317 -346
56 26 107 78 131 134 20 47 21 146 1 193 -50 121 -191 187 -311 144z"/>
</g>
</svg>
