<svg width="479.79" height="479.79" xmlns="http://www.w3.org/2000/svg">

 <g>
  <title>background</title>
  <rect fill="none" id="canvas_background" height="402" width="582" y="-1" x="-1"/>
 </g>
 <g>
  <title>Layer 1</title>
  <g id="svg_1">
   <path fill="#ff0000" stroke="#000000" id="svg_2" d="m478.408997,116.616997c-0.368011,-4.270996 -3.181,-7.939995 -7.199982,-9.403c-4.029022,-1.472 -8.539001,-0.469994 -11.570007,2.556l-62.015015,62.011009l-68.748993,-21.768005l-21.768005,-68.748001l62.015991,-62.015999c3.035004,-3.032001 4.025024,-7.543 2.563019,-11.565001c-1.47699,-4.03 -5.136993,-6.837 -9.416992,-7.207c-37.663025,-3.245 -74.56601,10.202 -101.247009,36.886998c-36.542007,36.544998 -46.219009,89.911003 -29.083008,135.399002c-1.873001,1.578003 -3.721008,3.25 -5.544006,5.052994l-207.008989,195.336014c-0.073,0.071014 -0.145,0.148987 -0.223999,0.218994c-24.345001,24.346008 -24.345001,63.959015 0,88.309021c24.349001,24.343994 63.671999,24.047974 88.013002,-0.298004c0.104996,-0.098022 0.200996,-0.196014 0.296997,-0.305023l193.632004,-208.621002c1.764984,-1.772995 3.403992,-3.627991 4.949005,-5.531998c45.5,17.167007 98.899994,7.513 135.473999,-29.056c26.674988,-26.686996 40.130981,-63.593002 36.881989,-101.250999zm-402.428993,318.763008c-8.971001,8.968994 -23.500004,8.963013 -32.470005,0c-8.966999,-8.960999 -8.966999,-23.502014 0,-32.466003c8.970001,-8.963013 23.499004,-8.963013 32.470005,0c8.966995,8.963989 8.966995,23.505005 0,32.466003z"/>
  </g>
  <g id="svg_3"/>
  <g id="svg_4"/>
  <g id="svg_5"/>
  <g id="svg_6"/>
  <g id="svg_7"/>
  <g id="svg_8"/>
  <g id="svg_9"/>
  <g id="svg_10"/>
  <g id="svg_11"/>
  <g id="svg_12"/>
  <g id="svg_13"/>
  <g id="svg_14"/>
  <g id="svg_15"/>
  <g id="svg_16"/>
  <g id="svg_17"/>
 </g>
</svg>